<?xml version="1.0" encoding="utf-8"?>
<svg viewBox="213.148 36.801 512 511.519" xmlns="http://www.w3.org/2000/svg">
  <path id="Shape" d="M 33.633 16 L 10.633 16 C 7.32 16 4.633 18.686 4.633 22 L 4.633 44 C 4.633 47.314 7.32 50 10.633 50 L 25.633 50 C 26.262 49.998 26.855 50.292 27.233 50.794 L 32.054 57.2 C 32.424 57.702 33.01 57.998 33.633 57.998 C 34.257 57.998 34.843 57.702 35.212 57.2 L 40.033 50.8 C 40.411 50.296 41.004 50 41.633 50 L 56.633 50 C 59.947 50 62.633 47.314 62.633 44 L 62.633 22 C 62.633 18.686 59.947 16 56.633 16 Z" fill="#fdb415" transform="matrix(8.827586, 0, 0, 8.827586, 172.250272, 36.337066)"/>
  <path id="Shape" d="M 33.883 33.46 C 34.259 33.085 34.47 32.576 34.47 32.045 C 34.47 31.514 34.259 31.005 33.883 30.63 C 33.53 30.275 33.054 30.067 32.553 30.05 C 32.253 30.037 31.978 29.881 31.813 29.63 L 32.163 29.53 L 50.143 11.54 L 52.273 13.66 L 52.973 14.37 Z" fill="#5dadff" transform="matrix(8.827586, 0, 0, 8.827586, 172.250272, 36.337066)"/>
  <path id="Shape" d="M 60.753 6.59 L 55.803 11.54 L 50.143 5.88 L 55.093 0.93 C 56.268 -0.24 58.168 -0.24 59.343 0.93 L 60.753 2.35 C 61.923 3.521 61.923 5.419 60.753 6.59 Z" style="fill: rgb(41, 128, 186);" transform="matrix(8.827586, 0, 0, 8.827586, 172.250272, 36.337066)"/>
  <path id="Shape" d="M 50.143 11.54 L 32.163 29.53 L 31.813 29.63 C 31.711 29.482 31.652 29.309 31.643 29.13 C 31.606 28.337 31.106 27.64 30.366 27.353 C 29.626 27.065 28.786 27.24 28.223 27.8 L 47.323 8.71 L 49.443 10.83 Z" style="fill: rgb(41, 128, 186);" transform="matrix(8.827586, 0, 0, 8.827586, 172.250272, 36.337066)"/>
  <path id="Shape" d="M 57.926 3.762 C 57.64 3.476 57.21 3.39 56.836 3.545 C 56.463 3.7 56.219 4.065 56.219 4.469 C 56.219 4.873 56.463 5.238 56.836 5.393 C 57.21 5.548 57.64 5.462 57.926 5.176 C 58.317 4.786 58.317 4.152 57.926 3.762 Z" fill="#fff" transform="matrix(8.827586, 0, 0, 8.827586, 172.250272, 36.337066)"/>
  <path id="Shape" d="M 53.684 6.59 L 52.269 8.005 C 52.009 8.256 51.905 8.628 51.997 8.978 C 52.088 9.327 52.361 9.6 52.711 9.692 C 53.06 9.783 53.432 9.679 53.683 9.419 L 55.098 8 C 55.451 7.604 55.434 7.001 55.058 6.626 C 54.682 6.252 54.079 6.236 53.684 6.59 Z" fill="#fff" transform="matrix(8.827586, 0, 0, 8.827586, 172.250272, 36.337066)"/>
  <path id="Shape" d="M 29.463 35.5 L 25.843 37.18 C 25.459 37.37 24.996 37.294 24.692 36.991 C 24.389 36.688 24.313 36.224 24.503 35.84 L 26.183 32.22 C 26.952 32.466 27.651 32.891 28.223 33.46 C 28.799 34.027 29.225 34.728 29.463 35.5 Z" fill="#35495e" transform="matrix(8.827586, 0, 0, 8.827586, 172.250272, 36.337066)"/>
  <path id="Shape" d="M 33.883 33.46 L 29.463 35.5 C 29.225 34.728 28.799 34.027 28.223 33.46 C 27.651 32.891 26.952 32.466 26.183 32.22 L 28.223 27.8 C 28.786 27.24 29.626 27.065 30.366 27.353 C 31.106 27.64 31.606 28.337 31.643 29.13 C 31.652 29.309 31.711 29.482 31.813 29.63 C 31.978 29.881 32.253 30.037 32.553 30.05 C 33.054 30.067 33.53 30.275 33.883 30.63 C 34.259 31.005 34.47 31.514 34.47 32.045 C 34.47 32.576 34.259 33.085 33.883 33.46 Z" fill="#f9eab0" transform="matrix(8.827586, 0, 0, 8.827586, 172.250272, 36.337066)"/>
  <g fill="#fff" transform="matrix(8.827586, 0, 0, 8.827586, 213.250183, 36.337066)">
    <path id="Shape" d="m6 22h-1c-.55228475 0-1-.4477153-1-1s.44771525-1 1-1h1c.55228475 0 1 .4477153 1 1s-.44771525 1-1 1z"/>
    <path id="Shape" d="m24 22h-14c-.55228475 0-1-.4477153-1-1s.44771525-1 1-1h14c.5522847 0 1 .4477153 1 1s-.4477153 1-1 1z"/>
    <path id="Shape" d="m53 46h-2c-.5522847 0-1-.4477153-1-1s.4477153-1 1-1h2c.5522847 0 1 .4477153 1 1s-.4477153 1-1 1z"/>
    <path id="Shape" d="m47 46h-10c-.5522847 0-1-.4477153-1-1s.4477153-1 1-1h10c.5522847 0 1 .4477153 1 1s-.4477153 1-1 1z"/>
  </g>
  <path id="Shape" d="M 55.803 11.54 L 52.973 14.37 L 52.273 13.66 L 50.143 11.54 L 49.443 10.83 L 47.323 8.71 L 50.143 5.88 Z" style="fill: rgb(53, 73, 94);" transform="matrix(8.827586, 0, 0, 8.827586, 172.250272, 36.337066)"/>
</svg>