<?xml version="1.0" encoding="utf-8"?>
<svg viewBox="9.446 10.826 512 511.603" xmlns="http://www.w3.org/2000/svg">
  <path d="M 424.778 211.662 C 424.766 92.048 292.943 17.303 187.497 77.121 C 84.858 135.347 81.464 279.684 181.256 342.503 C 195.887 351.415 204.873 367.047 205.086 383.955 L 205.086 418.839 C 205.086 433.143 216.89 444.737 231.449 444.737 L 301.752 444.737 C 316.31 444.737 328.114 433.143 328.114 418.839 L 328.114 384.673 C 328.338 367.362 337.511 351.354 352.458 342.182 C 397.574 313.572 424.812 264.415 424.778 211.662 Z" style="" fill="#fdb415"/>
  <path d="M 222.664 496.532 C 222.664 510.833 234.465 522.429 249.026 522.429 L 284.177 522.429 C 298.736 522.429 310.538 510.833 310.538 496.532 L 310.538 444.737 L 222.664 444.737 Z" style="fill: rgb(249, 234, 176);"/>
  <path d="M 479.202 120.341 L 506.831 99.985 L 475.195 58.55 L 447.565 78.905 C 436.738 86.873 421.19 80.337 419.58 67.141 C 419.396 65.649 419.413 64.139 419.629 62.65 L 424.509 29.079 L 372.309 21.75 L 367.43 55.32 C 365.522 68.48 349.832 74.675 339.184 66.473 C 337.975 65.538 336.893 64.455 335.971 63.246 L 315.26 36.105 L 273.077 67.181 L 293.79 94.323 C 301.901 104.958 295.248 120.234 281.816 121.814 C 280.294 121.994 278.757 121.976 277.243 121.764 L 243.068 116.973 L 235.605 168.25 L 269.79 173.041 C 283.184 174.922 289.484 190.337 281.13 200.792 C 280.183 201.981 279.08 203.038 277.849 203.946 L 250.23 224.301 L 281.866 265.735 L 309.485 245.389 C 320.308 237.415 335.861 243.938 337.481 257.135 C 337.664 258.635 337.647 260.149 337.43 261.643 L 332.509 295.206 L 384.708 302.535 L 389.628 268.956 C 391.542 255.798 407.236 249.611 417.88 257.816 C 419.088 258.748 420.166 259.833 421.089 261.039 L 441.809 288.17 L 483.993 257.096 L 463.261 229.962 C 455.143 219.331 461.785 204.054 475.216 202.461 C 476.741 202.281 478.287 202.298 479.807 202.511 L 513.981 207.312 L 521.446 156.036 L 487.268 151.237 C 473.875 149.353 467.577 133.935 475.935 123.483 C 476.879 122.3 477.978 121.243 479.202 120.341 Z M 378.53 222.565 C 359.474 222.565 343.291 214.41 332.302 202.037 C 315.984 183.668 311.109 155.997 325.259 131.923 C 348.935 91.641 408.127 91.641 431.802 131.923 C 437.2 141.112 440.044 151.53 440.044 162.14 C 440.044 195.512 412.503 222.565 378.53 222.565 Z" style="" fill="#5dadff"/>
  <path d="M 181.256 342.503 C 173.566 337.637 166.324 332.127 159.603 326.033 C 151.098 358.137 110.403 369.159 86.354 345.872 C 62.301 322.588 72.931 282.459 105.484 273.639 C 109.305 272.604 113.248 272.082 117.21 272.089 C 118.554 272.089 119.845 272.365 121.128 272.478 C 112.799 253.247 108.506 232.562 108.509 211.662 L 97.323 211.662 L 91.251 240.037 C 89.962 246.071 82.833 248.87 77.665 245.372 L 53.385 228.928 L 27.021 254.823 L 43.719 278.675 C 47.279 283.752 44.429 290.755 38.288 292.021 L 9.446 297.986 L 9.446 332.517 L 38.321 338.479 C 44.464 339.747 47.314 346.749 43.753 351.826 L 27.021 375.678 L 53.385 401.573 L 77.665 385.171 C 82.836 381.666 89.972 384.466 91.259 390.508 L 97.323 418.839 L 132.475 418.839 L 138.538 390.465 C 139.825 384.423 146.963 381.622 152.131 385.129 L 176.411 401.573 L 203.997 374.476 C 201.107 361.247 192.908 349.719 181.256 342.503 Z" style="fill: rgb(41, 128, 186);"/>
  <path d="M 378.52 93.087 C 324.403 93.087 290.578 150.638 317.637 196.676 C 344.697 242.714 412.346 242.714 439.402 196.676 C 445.573 186.178 448.821 174.268 448.821 162.147 C 448.779 124.026 417.329 93.13 378.52 93.087 Z M 378.52 213.94 C 337.934 213.94 312.564 170.779 332.859 136.251 C 353.153 101.721 403.889 101.721 424.184 136.251 C 428.811 144.124 431.246 153.056 431.246 162.147 C 431.213 190.739 407.626 213.908 378.52 213.94 Z" style="fill: rgb(41, 128, 186);"/>
  <path d="M 257.813 392.943 L 275.388 392.943 L 275.388 418.839 L 257.813 418.839 Z" style="fill: rgb(249, 234, 176);"/>
  <path d="M 228.162 308.163 C 152.55 279.147 137.269 180.607 200.656 130.791 C 203.759 128.353 206.998 126.089 210.36 124.009 L 200.966 109.402 C 120.833 158.994 125.4 275.196 209.184 318.571 C 213.272 320.689 217.479 322.578 221.785 324.228 C 243.48 332.394 257.806 352.854 257.813 375.678 L 275.388 375.678 C 275.416 345.731 256.631 318.876 228.162 308.163 Z" style="fill: rgb(249, 234, 176);"/>
  <path d="M 433.567 332.517 L 495.082 332.517 L 495.082 349.781 L 433.567 349.781 Z" style="fill: rgb(253, 180, 21);"/>
  <path d="M 441.848 371.83 L 459.239 371.83 L 460.436 439.956 L 443.043 439.956 Z" style="fill: rgb(253, 180, 21);" transform="matrix(0.646834, -0.762631, 0.762631, 0.646834, -150.218519, 487.402154)"/>
  <path d="M 380.84 401.573 L 398.417 401.573 L 398.417 462.001 L 380.84 462.001 Z" style="fill: rgb(253, 180, 21);"/>
  <path d="M 10.641 151.227 L 83.031 151.227 L 83.177 168.5 L 10.787 168.5 Z" style="fill: rgb(253, 180, 21);" transform="matrix(0.971144, -0.238492, 0.238492, 0.971144, -36.77256, 15.800357)"/>
  <path d="M 50.769 48.931 L 68.131 48.931 L 69.399 124.065 L 52.038 124.065 Z" style="fill: rgb(253, 180, 21);" transform="matrix(0.588106, -0.808784, 0.808784, 0.588106, -45.209949, 84.223029)"/>
  <path d="M 107.935 11.964 L 125.491 11.964 L 126.1 83.317 L 108.545 83.317 Z" style="fill: rgb(253, 180, 21);" transform="matrix(0.96989, -0.243543, 0.243543, 0.96989, -8.079128, 29.93326)"/>
</svg>