<?xml version="1.0" encoding="utf-8"?>
<svg viewBox="0 0 500 500" xmlns="http://www.w3.org/2000/svg">
  <path d="M 443.261 222.228 C 443.249 103.999 308.566 30.119 200.831 89.244 C 95.966 146.796 92.497 289.462 194.455 351.555 C 209.403 360.364 218.584 375.815 218.803 392.527 L 218.803 427.007 C 218.803 441.145 230.862 452.605 245.737 452.605 L 317.565 452.605 C 332.44 452.605 344.499 441.145 344.499 427.007 L 344.499 393.236 C 344.729 376.126 354.1 360.303 369.371 351.238 C 415.467 322.959 443.296 274.37 443.261 222.228 Z" style="" fill="#fdb415"/>
  <path d="M 236.761 503.8 C 236.761 517.936 248.818 529.398 263.696 529.398 L 299.609 529.398 C 314.484 529.398 326.543 517.936 326.543 503.8 L 326.543 452.605 L 236.761 452.605 Z" style="fill: rgb(249, 234, 176);"/>
  <path d="M 498.866 131.964 L 527.093 111.843 L 494.772 70.889 L 466.542 91.008 C 455.48 98.884 439.595 92.423 437.949 79.38 C 437.764 77.905 437.78 76.413 438.001 74.941 L 442.985 41.758 L 389.653 34.515 L 384.669 67.696 C 382.72 80.702 366.688 86.826 355.81 78.719 C 354.574 77.796 353.47 76.725 352.527 75.53 L 331.366 48.703 L 288.268 79.419 L 309.431 106.247 C 317.717 116.76 310.921 131.858 297.197 133.421 C 295.642 133.597 294.072 133.58 292.524 133.371 L 257.608 128.635 L 249.984 179.319 L 284.911 184.053 C 298.595 185.913 305.031 201.15 296.497 211.484 C 295.528 212.658 294.401 213.705 293.145 214.601 L 264.925 234.72 L 297.248 275.675 L 325.466 255.564 C 336.525 247.682 352.415 254.131 354.069 267.174 C 354.257 268.656 354.24 270.154 354.018 271.631 L 348.99 304.806 L 402.321 312.049 L 407.349 278.859 C 409.304 265.854 425.34 259.738 436.214 267.848 C 437.447 268.769 438.549 269.841 439.491 271.033 L 460.662 297.851 L 503.76 267.136 L 482.579 240.317 C 474.284 229.808 481.071 214.708 494.793 213.134 C 496.352 212.956 497.93 212.973 499.485 213.184 L 534.401 217.928 L 542.026 167.246 L 507.107 162.502 C 493.423 160.64 486.989 145.401 495.527 135.069 C 496.493 133.901 497.615 132.856 498.866 131.964 Z M 396.01 233.005 C 347.628 233.005 317.39 183.232 341.582 143.413 C 365.772 103.596 426.248 103.596 450.437 143.413 C 455.953 152.494 458.858 162.793 458.858 173.278 C 458.858 206.264 430.72 233.005 396.01 233.005 Z" style="" fill="#5dadff"/>
  <path d="M 194.455 351.555 C 186.599 346.744 179.198 341.298 172.332 335.275 C 163.643 367.008 122.066 377.902 97.494 354.885 C 72.919 331.87 83.78 292.205 117.04 283.488 C 120.943 282.465 124.972 281.95 129.02 281.956 C 130.393 281.956 131.712 282.228 133.023 282.34 C 124.513 263.332 120.128 242.886 120.13 222.228 L 108.701 222.228 L 102.498 250.274 C 101.18 256.239 93.897 259.005 88.617 255.548 L 63.81 239.294 L 36.874 264.89 L 53.934 288.465 C 57.572 293.484 54.661 300.405 48.385 301.657 L 18.918 307.553 L 18.918 341.683 L 48.42 347.578 C 54.695 348.83 57.607 355.751 53.969 360.77 L 36.874 384.345 L 63.81 409.941 L 88.617 393.73 C 93.9 390.265 101.192 393.033 102.507 399.004 L 108.701 427.007 L 144.616 427.007 L 150.81 398.961 C 152.125 392.989 159.418 390.222 164.699 393.687 L 189.506 409.941 L 217.689 383.158 C 214.737 370.081 206.36 358.688 194.455 351.555 Z" style="" fill="#3e7bbb"/>
  <path d="M 396 105.026 C 340.708 105.026 306.15 161.91 333.796 207.416 C 361.443 252.921 430.558 252.921 458.204 207.416 C 464.507 197.039 467.826 185.268 467.826 173.286 C 467.783 135.606 435.65 105.069 396 105.026 Z M 396 224.48 C 354.532 224.48 328.613 181.818 349.347 147.69 C 370.082 113.559 421.919 113.559 442.654 147.69 C 447.382 155.471 449.87 164.301 449.87 173.286 C 449.836 201.547 425.737 224.448 396 224.48 Z" style="fill: rgb(62, 123, 187);"/>
  <path d="M 272.673 401.41 L 290.629 401.41 L 290.629 427.007 L 272.673 427.007 Z" style="fill: rgb(249, 234, 176);"/>
  <path d="M 242.38 317.613 C 165.127 288.932 149.514 191.532 214.276 142.292 C 217.446 139.882 220.755 137.645 224.19 135.59 L 214.593 121.152 C 132.721 170.168 137.387 285.027 222.989 327.9 C 227.166 329.992 231.464 331.859 235.863 333.491 C 258.03 341.562 272.667 361.785 272.673 384.345 L 290.629 384.345 C 290.659 354.746 271.465 328.201 242.38 317.613 Z" style="fill: rgb(249, 234, 176);"/>
  <path d="M 452.241 341.683 L 515.09 341.683 L 515.09 358.749 L 452.241 358.749 Z" style="fill: rgb(253, 180, 21);"/>
  <path d="M 459.761 379.896 L 477.196 379.896 L 480.637 448.525 L 463.201 448.525 Z" style="fill: rgb(253, 180, 21);" transform="matrix(0.659233, -0.751938, 0.751938, 0.659233, -151.23266, 494.709745)"/>
  <path d="M 398.37 409.941 L 416.328 409.941 L 416.328 469.67 L 398.37 469.67 Z" style="fill: rgb(253, 180, 21);"/>
  <path d="M 20.076 162.477 L 93.901 162.477 L 94.311 179.581 L 20.486 179.581 Z" style="fill: rgb(253, 180, 21);" transform="matrix(0.972919, -0.231146, 0.231146, 0.972919, -37.983818, 17.851673)"/>
  <path d="M 60.145 60.578 L 77.507 60.578 L 81.165 136.449 L 63.802 136.449 Z" style="fill: rgb(253, 180, 21);" transform="matrix(0.600831, -0.799376, 0.799376, 0.600831, -50.546049, 95.803443)"/>
  <path d="M 119.008 24.774 L 136.912 24.774 L 138.639 95.436 L 120.737 95.436 Z" style="fill: rgb(253, 180, 21);" transform="matrix(0.971738, -0.236061, 0.236061, 0.971738, -10.547669, 32.108891)"/>
</svg>